<svg width="149" height="149" viewBox="0 0 149 149" fill="none" xmlns="http://www.w3.org/2000/svg">
<circle cx="74.5001" cy="74.5" r="67.5393" transform="rotate(83.741 74.5001 74.5)" fill="#FF7A24"/>
<circle cx="74.9214" cy="74.693" r="23.5364" transform="rotate(83.741 74.9214 74.693)" fill="white"/>
<path d="M26.6886 68.2782L26.244 73.8081L25.5568 73.7529C25.461 73.4771 25.3812 73.2026 25.3174 72.9294C25.2437 72.6446 25.1861 72.3612 25.1444 72.079L17.8085 71.4893L16.8707 71.3496C16.9426 71.6556 16.9817 71.9698 16.9879 72.292C16.9942 72.6142 16.9783 72.9454 16.9402 73.2855L16.3425 73.3178C16.2387 72.7411 16.0855 72.1122 15.8829 71.431C15.6811 70.7392 15.4325 70.0972 15.1369 69.5051L15.1806 68.9617L25.3294 69.7775C25.4148 69.5163 25.5161 69.2563 25.6334 68.9977C25.7401 68.7382 25.8627 68.4799 26.0013 68.223L26.6886 68.2782Z" fill="white"/>
<path d="M22.6229 59.7837C21.7236 59.4421 20.9753 59.0492 20.3779 58.605C19.7743 58.147 19.3122 57.6627 18.9916 57.1521C18.6648 56.6278 18.4757 56.0871 18.4243 55.5301C18.3767 54.9632 18.4592 54.3999 18.6718 53.8403C19.1273 52.6412 19.9426 51.8646 21.1176 51.5106C22.2827 51.1528 23.7695 51.3174 25.5782 52.0045C26.4775 52.3461 27.229 52.746 27.8326 53.204C28.4299 53.6482 28.8901 54.1374 29.2131 54.6718C29.5299 55.1923 29.7102 55.7411 29.7541 56.318C29.7979 56.895 29.7097 57.4732 29.4895 58.0528C29.258 58.6624 28.9331 59.1564 28.5148 59.535C28.0866 59.9097 27.58 60.1746 26.9951 60.3298C26.404 60.4711 25.7414 60.4996 25.0074 60.4151C24.2771 60.3206 23.4823 60.1102 22.6229 59.7837ZM23.4771 57.5354C24.1965 57.8087 24.8486 58.0336 25.4334 58.21C26.022 58.3764 26.5389 58.4756 26.9841 58.5075C27.4194 58.5356 27.778 58.4946 28.06 58.3845C28.3457 58.2644 28.5456 58.0544 28.6595 57.7546C28.7923 57.4049 28.8156 57.0878 28.7292 56.8035C28.6466 56.5091 28.4452 56.2267 28.1248 55.9564C27.8082 55.676 27.3696 55.4008 26.809 55.1306C26.2485 54.8605 25.5535 54.5679 24.7241 54.2528C24.0046 53.9795 23.3525 53.7547 22.7677 53.5782C22.183 53.4018 21.673 53.2996 21.2377 53.2714C20.7962 53.2295 20.4288 53.2786 20.1355 53.4187C19.8459 53.5488 19.6328 53.7938 19.4961 54.1535C19.3747 54.4733 19.359 54.7703 19.4492 55.0447C19.5393 55.3191 19.7446 55.5915 20.065 55.8618C20.3891 56.1222 20.8365 56.3893 21.4071 56.6633C21.9677 56.9334 22.6577 57.2241 23.4771 57.5354Z" fill="white"/>
<path d="M36.0284 29.3542L38.9545 26.7332L39.361 27.187C39.3058 27.3656 39.2346 27.5585 39.1475 27.7657C39.0612 27.9578 38.9532 28.1335 38.8233 28.2929L40.1436 34.429L42.5614 37.1282C42.7349 37.0015 42.9294 36.9062 43.1448 36.8424C43.3611 36.7634 43.5726 36.7032 43.7793 36.6615L44.1858 37.1154L40.5073 40.4104L40.1008 39.9565C40.1719 39.7636 40.2626 39.5604 40.3727 39.347C40.4829 39.1335 40.6153 38.9288 40.7699 38.7329L38.3628 36.0457L32.3022 34.134C32.0906 34.2662 31.8726 34.3753 31.6484 34.4614C31.4321 34.5404 31.2241 34.6046 31.0246 34.6542L30.6181 34.2004L34.5355 30.6914L34.942 31.1453C34.8876 31.3088 34.8172 31.4866 34.731 31.6787C34.6447 31.8708 34.5239 32.0723 34.3684 32.2833L38.9434 33.9543L37.7006 29.2985C37.4818 29.4228 37.2603 29.5279 37.036 29.614C36.8118 29.7 36.6114 29.7647 36.4349 29.808L36.0284 29.3542Z" fill="white"/>
<path d="M53.3532 18.9509C53.5343 19.397 53.7075 19.8644 53.8727 20.3531C54.038 20.8418 54.1753 21.308 54.2847 21.7517L53.6872 22.0257L52.2281 20.6133L49.5026 21.8631L51.14 25.4339L52.9181 24.6186L53.0448 23.2023L53.5112 22.9884C53.7781 23.4422 54.0452 23.9606 54.3126 24.5436C54.5799 25.1266 54.8051 25.6819 54.9882 26.2094L54.5218 26.4233L53.3525 25.5659L51.5744 26.3813L53.312 30.1707L56.1541 28.8675L56.0778 26.6623L56.6754 26.3883C56.7989 26.5551 56.9336 26.7462 57.0794 26.9615C57.2252 27.1769 57.3657 27.4065 57.501 27.6502C57.6415 27.8797 57.7746 28.1186 57.9001 28.3668C58.0354 28.6105 58.152 28.8392 58.2501 29.053L50.3651 32.6686L50.1111 32.1147C50.2362 31.9515 50.383 31.7843 50.5514 31.613C50.7198 31.4417 50.9068 31.2854 51.1125 31.144L47.3298 22.8947C47.1176 22.945 46.8842 22.9873 46.6295 23.0218C46.3801 23.0421 46.1506 23.0415 45.9408 23.0201L45.6869 22.4662L53.3532 18.9509Z" fill="white"/>
<path d="M66.6074 26.9849L62.6757 27.4613L62.6024 26.8564C62.7594 26.7297 62.9288 26.6177 63.1109 26.5202C63.3022 26.4109 63.4908 26.3235 63.6767 26.2579L66.5394 15.4934L67.7173 15.3507L72.9566 25.1334C73.174 25.1502 73.3939 25.1881 73.6165 25.2473C73.8377 25.2959 74.0343 25.3636 74.2064 25.4504L74.2797 26.0553L69.2975 26.659L69.2242 26.0541C69.4142 25.9341 69.6208 25.8176 69.844 25.7044C70.0672 25.5912 70.2823 25.5006 70.4894 25.4324L69.2595 23.0134L65.7258 23.4415L65.0933 26.0862C65.5892 26.0907 66.0694 26.1887 66.5341 26.38L66.6074 26.9849ZM65.9825 22.3606L68.7999 22.0192L67.3969 19.1043L66.9286 17.7721L66.8967 17.7759L66.7163 19.2191L65.9825 22.3606Z" fill="white"/>
<path d="M83.1047 25.9749C83.3344 26.0776 83.5346 26.1905 83.7054 26.3137C83.8762 26.4368 84.0417 26.5588 84.2021 26.6798L84.0772 27.2761L79.2436 26.2638L79.3685 25.6675C79.6249 25.5901 79.8644 25.542 80.0868 25.523C80.3113 25.4936 80.5326 25.4799 80.7507 25.4819L82.611 16.5993C82.112 16.3747 81.7148 16.1331 81.4195 15.8747L81.5444 15.2784L83.2079 15.6268C83.4171 15.6706 83.6536 15.7147 83.9174 15.759C84.1916 15.8055 84.4762 15.8542 84.7714 15.9051C85.0687 15.9455 85.3702 15.9923 85.6758 16.0453C85.9836 16.088 86.2787 16.1389 86.5612 16.198C87.1366 16.3185 87.6507 16.4972 88.1035 16.734C88.5689 16.9625 88.9469 17.2437 89.2374 17.5776C89.5383 17.9137 89.7413 18.3002 89.8464 18.7372C89.9641 19.166 89.9681 19.6419 89.8586 20.165C89.7008 20.9183 89.3884 21.4972 88.9215 21.9018C88.4545 22.3064 87.8767 22.5621 87.1881 22.6691C87.4685 23.4159 87.7719 24.1838 88.098 24.9729C88.4264 25.7516 88.7853 26.5148 89.1748 27.2626L89.8229 27.9225L89.7111 28.4561L87.0903 27.9072L86.524 27.248C86.1632 26.5718 85.8734 25.8176 85.6545 24.9854C85.4483 24.145 85.2806 23.329 85.1515 22.5374L83.8804 22.2712L83.1047 25.9749ZM85.7826 17.0998C85.4582 17.0318 85.1901 17.0084 84.9782 17.0296L84.0612 21.4081L84.9871 21.602C85.5206 21.7137 86.0152 21.6207 86.4707 21.323C86.9284 21.0148 87.2362 20.484 87.394 19.7307C87.475 19.3436 87.4917 19.0031 87.4441 18.7092C87.3986 18.4048 87.3004 18.1439 87.1493 17.9266C86.9982 17.7093 86.8059 17.5325 86.5723 17.3962C86.3388 17.2599 86.0755 17.1611 85.7826 17.0998Z" fill="white"/>
<path d="M96.7242 30.1222C96.7699 30.2821 96.8602 30.4606 96.9952 30.6579C97.1354 30.8458 97.3597 31.0254 97.6681 31.1967C98.182 31.4821 98.6799 31.5874 99.1616 31.5126C99.6579 31.4336 100.038 31.1559 100.303 30.6793C100.495 30.3335 100.544 29.9816 100.449 29.6234C100.364 29.2704 100.208 28.9023 99.9804 28.5193C99.753 28.1362 99.4996 27.7448 99.2203 27.3451C98.9461 26.9361 98.7135 26.5073 98.5224 26.0588C98.3313 25.6103 98.2222 25.1462 98.1952 24.6666C98.1827 24.1828 98.3243 23.6745 98.6201 23.1419C98.8745 22.684 99.1791 22.3335 99.5342 22.0905C99.8892 21.8475 100.271 21.699 100.68 21.645C101.104 21.5868 101.545 21.6179 102.004 21.7383C102.468 21.8493 102.934 22.0346 103.401 22.2941C103.971 22.6107 104.476 22.9459 104.915 23.2999C105.369 23.6498 105.745 24.0178 106.044 24.4039C105.931 24.5857 105.793 24.7902 105.63 25.0176C105.476 25.2502 105.313 25.4776 105.141 25.6998C104.974 25.9126 104.807 26.1136 104.641 26.3025C104.49 26.4874 104.356 26.6395 104.241 26.7589L103.666 26.4397L104.088 24.1612C104.007 24.0429 103.868 23.8981 103.669 23.7268C103.48 23.5607 103.269 23.4128 103.035 23.283C102.643 23.065 102.254 22.9836 101.869 23.0387C101.484 23.0937 101.182 23.3175 100.964 23.71C100.767 24.0651 100.71 24.4311 100.794 24.808C100.884 25.1755 101.04 25.5555 101.262 25.9479C101.484 26.3403 101.734 26.7483 102.013 27.1719C102.305 27.5913 102.547 28.0253 102.738 28.4737C102.93 28.9222 103.039 29.3863 103.066 29.866C103.098 30.3363 102.971 30.8284 102.686 31.3424C102.167 32.2769 101.447 32.8247 100.526 32.9857C99.6197 33.1426 98.5544 32.8811 97.3302 32.2012C97.0312 32.0351 96.7379 31.8478 96.4503 31.6391C96.172 31.4356 95.9155 31.2259 95.6808 31.01C95.4462 30.7941 95.2421 30.5891 95.0687 30.3949C94.9047 30.206 94.7946 30.0409 94.7385 29.8997C94.8672 29.69 95.0177 29.474 95.1901 29.2518C95.3676 29.0203 95.5425 28.7934 95.7148 28.5712C95.9017 28.3448 96.0807 28.1325 96.252 27.9342C96.4233 27.7358 96.579 27.5656 96.7191 27.4233L97.2939 27.7425L96.7242 30.1222Z" fill="white"/>
<path d="M116.831 40.5443C117.529 40.089 118.238 39.7672 118.958 39.579C119.686 39.3849 120.391 39.3402 121.071 39.4451C121.761 39.5441 122.411 39.7969 123.02 40.2034C123.63 40.61 124.174 41.1804 124.653 41.9147C125.131 42.649 125.434 43.377 125.56 44.0987C125.686 44.8205 125.652 45.5124 125.458 46.1746C125.279 46.8398 124.954 47.4665 124.483 48.0546C124.02 48.6369 123.44 49.1557 122.741 49.611C122.043 50.0663 121.329 50.391 120.601 50.5851C119.881 50.7734 119.177 50.818 118.487 50.719C117.812 50.6231 117.17 50.3718 116.56 49.9653C115.951 49.5588 115.406 48.9884 114.928 48.2541C114.449 47.5198 114.147 46.7918 114.021 46.07C113.895 45.3482 113.921 44.6547 114.1 43.9895C114.288 43.3184 114.613 42.6917 115.076 42.1095C115.547 41.5214 116.132 40.9996 116.831 40.5443ZM118.319 42.8278C117.746 43.2014 117.243 43.5935 116.808 44.0041C116.383 44.4088 116.053 44.822 115.817 45.2435C115.596 45.6682 115.479 46.0954 115.466 46.5252C115.467 46.9581 115.605 47.3849 115.88 47.8058C116.131 48.1909 116.442 48.4535 116.814 48.5937C117.195 48.7281 117.616 48.7665 118.076 48.709C118.545 48.6457 119.045 48.4922 119.575 48.2486C120.12 48.0081 120.679 47.7011 121.253 47.3275C121.826 46.9539 122.325 46.5648 122.75 46.16C123.19 45.7583 123.523 45.3497 123.75 44.934C123.991 44.5214 124.111 44.0986 124.11 43.6658C124.123 43.236 123.99 42.8062 123.71 42.3764C123.441 41.9644 123.113 41.6868 122.726 41.5435C122.348 41.3943 121.925 41.3514 121.456 41.4148C121.001 41.4812 120.505 41.6392 119.966 41.8886C119.441 42.1411 118.892 42.4542 118.319 42.8278Z" fill="white"/>
<path d="M122.075 60.6256C122.143 61.1167 122.117 61.6062 121.996 62.0939L121.409 62.2555L120.095 57.4783L120.683 57.3167C120.821 57.4561 120.951 57.6087 121.075 57.7743C121.208 57.9372 121.329 58.1146 121.437 58.3066L130.188 55.9005C130.174 55.6492 130.183 55.4195 130.214 55.2113C130.249 55.0134 130.287 54.831 130.33 54.664L130.917 54.5025L133.141 62.5882C132.935 62.6449 132.705 62.6969 132.452 62.7443C132.209 62.7889 131.955 62.8311 131.689 62.8711C131.436 62.9185 131.18 62.9556 130.921 62.9824C130.675 63.0166 130.444 63.0415 130.226 63.0569L130.052 62.4231L131.681 61.2103L130.856 58.211L126.79 59.329L127.373 61.4471L128.754 61.8154L128.882 62.2793C128.625 62.3942 128.349 62.4979 128.053 62.5904C127.76 62.6932 127.464 62.7857 127.165 62.8678C126.853 62.9426 126.549 63.0093 126.255 63.068C125.964 63.1371 125.7 63.1873 125.465 63.2187L125.338 62.7549L126.368 61.7234L125.785 59.6053L122.075 60.6256Z" fill="white"/>
<path d="M132.443 89.8275C131.975 89.715 131.494 89.5838 131 89.4338C130.507 89.2838 130.048 89.1241 129.623 88.9548L129.748 88.3094L131.746 87.945L132.316 85.0013L128.459 84.2545L128.088 86.1749L129.166 87.1023L129.068 87.606C128.544 87.5589 127.967 87.4744 127.337 87.3525C126.707 87.2305 126.125 87.0905 125.589 86.9324L125.687 86.4286L127.064 85.9768L127.436 84.0563L123.343 83.2638L122.749 86.3334L124.587 87.5548L124.462 88.2002C124.254 88.2036 124.02 88.2019 123.76 88.1951C123.5 88.1883 123.232 88.169 122.955 88.1371C122.687 88.1178 122.415 88.087 122.14 88.0446C121.863 88.0128 121.609 87.9745 121.378 87.9298L123.027 79.4136L123.626 79.5294C123.685 79.7261 123.736 79.9428 123.777 80.1794C123.819 80.4161 123.837 80.6591 123.832 80.9086L132.742 82.634C132.824 82.4322 132.926 82.2178 133.046 81.9906C133.175 81.776 133.309 81.5896 133.448 81.4316L134.047 81.5474L132.443 89.8275Z" fill="white"/>
<path d="M126.598 103.962L124.689 107.45L124.154 107.158C124.156 106.976 124.163 106.785 124.176 106.585C124.183 106.394 124.214 106.191 124.27 105.978L121.968 101.466L116.085 102.03C115.92 102.22 115.754 102.379 115.587 102.507C115.424 102.649 115.256 102.777 115.085 102.89L114.55 102.598L117.044 98.0402L117.578 98.3327C117.58 98.5289 117.571 98.7247 117.549 98.92C117.532 99.1299 117.495 99.3414 117.44 99.5546L121.627 99.2503L119.534 95.6927C119.398 95.8743 119.251 96.0315 119.093 96.1643C118.936 96.2972 118.761 96.4152 118.571 96.5181L118.036 96.2257L120.007 92.6247L120.541 92.9172C120.559 93.3292 120.521 93.7225 120.426 94.0969L122.888 99.1175L128.287 98.6357C128.432 98.4831 128.585 98.3477 128.747 98.2293C128.909 98.111 129.069 97.9973 129.226 97.8883L129.761 98.1807L127.321 102.64L126.786 102.347C126.782 102.199 126.789 102.02 126.806 101.81C126.833 101.605 126.875 101.372 126.933 101.111L123.166 101.281L125.07 104.515C125.21 104.348 125.369 104.192 125.547 104.045C125.734 103.904 125.906 103.779 126.063 103.67L126.598 103.962Z" fill="white"/>
<path d="M109.401 109.926C109.161 110.092 108.911 110.239 108.649 110.366C108.387 110.509 108.138 110.617 107.901 110.693L107.485 110.248L111.384 106.601L111.801 107.046C111.733 107.27 111.642 107.486 111.529 107.694C111.409 107.91 111.285 108.106 111.158 108.283L117.357 114.911C117.566 114.775 117.778 114.657 117.993 114.558C118.215 114.467 118.429 114.399 118.635 114.353L119.051 114.798L117.576 116.178C117.263 116.47 116.923 116.818 116.554 117.221C116.177 117.632 115.821 117.995 115.485 118.309C115.071 118.696 114.629 119.029 114.158 119.308C113.687 119.602 113.208 119.794 112.721 119.884C112.226 119.981 111.732 119.953 111.238 119.8C110.751 119.655 110.281 119.341 109.829 118.857C109.398 118.396 109.119 117.91 108.993 117.4C108.858 116.896 108.841 116.392 108.941 115.889C109.041 115.386 109.239 114.893 109.535 114.411C109.838 113.938 110.201 113.504 110.622 113.109C110.661 113.073 110.724 113.014 110.81 112.934C110.895 112.854 110.989 112.766 111.091 112.671C111.192 112.591 111.289 112.508 111.383 112.42C111.476 112.347 111.546 112.297 111.592 112.268L109.401 109.926ZM115.078 117.263C115.234 117.117 115.351 116.992 115.431 116.889C115.509 116.801 115.58 116.705 115.644 116.601L112.315 113.041C112.223 113.083 112.103 113.166 111.955 113.29C111.814 113.421 111.701 113.527 111.615 113.608C111.404 113.805 111.234 114.03 111.105 114.282C110.975 114.535 110.906 114.805 110.896 115.092C110.879 115.387 110.933 115.695 111.058 116.017C111.184 116.338 111.4 116.663 111.706 116.991C112.29 117.616 112.873 117.934 113.455 117.946C114.037 117.958 114.578 117.73 115.078 117.263Z" fill="white"/>
<path d="M97.6933 129.806C97.4988 129.366 97.3115 128.904 97.1315 128.421C96.9514 127.937 96.8 127.475 96.6772 127.035L97.2662 126.743L98.7674 128.111L101.454 126.779L99.7087 123.259L97.9562 124.128L97.8725 125.548L97.4128 125.776C97.1323 125.33 96.8495 124.82 96.5647 124.245C96.2798 123.671 96.0378 123.123 95.8388 122.601L96.2985 122.373L97.4932 123.194L99.2458 122.326L97.3939 118.591L94.5927 119.979L94.7359 122.181L94.1469 122.473C94.0184 122.31 93.878 122.123 93.7257 121.913C93.5735 121.702 93.426 121.477 93.2834 121.237C93.136 121.012 92.9957 120.777 92.8627 120.533C92.7201 120.293 92.5966 120.068 92.4921 119.858L100.264 116.004L100.534 116.55C100.414 116.717 100.273 116.889 100.11 117.065C99.9464 117.241 99.7642 117.403 99.563 117.551L103.594 125.682C103.805 125.625 104.037 125.576 104.29 125.533C104.539 125.506 104.768 125.499 104.979 125.514L105.249 126.06L97.6933 129.806Z" fill="white"/>
<path d="M84.2741 123.235C84.0229 123.221 83.7955 123.188 83.5919 123.134C83.3883 123.08 83.1901 123.025 82.997 122.97L82.9001 122.368L87.7757 121.583L87.8726 122.184C87.6609 122.348 87.4546 122.479 87.2537 122.576C87.0545 122.684 86.8528 122.776 86.6486 122.852L88.0924 131.812C88.6387 131.843 89.0961 131.926 89.4644 132.062L89.5613 132.663L87.8834 132.934C87.6723 132.968 87.4357 133.011 87.1736 133.064C86.9009 133.119 86.6177 133.176 86.3239 133.234C86.0318 133.303 85.7336 133.367 85.4292 133.427C85.1266 133.497 84.8328 133.555 84.5479 133.601C83.9674 133.695 83.4234 133.712 82.9159 133.653C82.3995 133.606 81.9459 133.479 81.5551 133.272C81.1538 133.065 80.8258 132.777 80.5713 132.407C80.3078 132.049 80.1336 131.606 80.0486 131.078C79.9261 130.318 80.0105 129.666 80.3016 129.121C80.5927 128.576 81.0406 128.13 81.6453 127.784C81.116 127.187 80.5578 126.579 79.9707 125.959C79.3852 125.349 78.7768 124.765 78.1454 124.206L77.304 123.822L77.2172 123.284L79.8608 122.858L80.6257 123.271C81.2046 123.773 81.7453 124.373 82.2477 125.072C82.7412 125.783 83.1899 126.485 83.5939 127.177L84.8761 126.971L84.2741 123.235ZM84.9519 132.481C85.2791 132.428 85.5378 132.354 85.7281 132.258L85.0164 127.841L84.0824 127.992C83.5442 128.079 83.1158 128.343 82.7971 128.784C82.4801 129.235 82.3828 129.841 82.5053 130.601C82.5682 130.992 82.6745 131.315 82.8243 131.573C82.9757 131.841 83.1609 132.049 83.3797 132.198C83.5986 132.347 83.8415 132.443 84.1084 132.487C84.3752 132.53 84.6564 132.528 84.9519 132.481Z" fill="white"/>
<path d="M67.2448 122.552L72.2196 123.078L72.1555 123.684C71.7056 123.873 71.2588 123.981 70.8151 124.009L69.8604 133.034C70.0696 133.089 70.2867 133.171 70.5115 133.281C70.7364 133.39 70.9336 133.508 71.103 133.633L71.0389 134.239L66.0641 133.713L66.1282 133.107C66.3319 133.01 66.5552 132.932 66.798 132.872C67.0291 132.821 67.2527 132.791 67.4686 132.781L68.4233 123.756C68.2152 123.691 68.0035 123.61 67.7881 123.512C67.5621 123.413 67.3597 123.295 67.1807 123.157L67.2448 122.552Z" fill="white"/>
<path d="M50.4745 129.291C50.6608 128.847 50.8676 128.393 51.0951 127.93C51.3226 127.467 51.554 127.04 51.7894 126.648L52.4063 126.875L52.4446 128.906L55.2582 129.942L56.6158 126.256L54.7802 125.58L53.6915 126.494L53.21 126.317C53.3409 125.807 53.5171 125.251 53.7388 124.649C53.9604 124.047 54.1924 123.495 54.4346 122.992L54.9161 123.169L55.1404 124.602L56.976 125.278L58.4167 121.366L55.4827 120.285L53.9816 121.902L53.3647 121.675C53.3947 121.47 53.434 121.239 53.4826 120.984C53.5311 120.728 53.5934 120.466 53.6694 120.198C53.7316 119.936 53.8058 119.673 53.8918 119.409C53.9678 119.14 54.0464 118.896 54.1277 118.675L62.2676 121.673L62.057 122.245C61.8532 122.272 61.6313 122.288 61.3911 122.29C61.1509 122.293 60.908 122.272 60.6625 122.227L57.5262 130.743C57.712 130.857 57.9073 130.992 58.1122 131.147C58.3033 131.308 58.4657 131.471 58.5992 131.634L58.3887 132.205L50.4745 129.291Z" fill="white"/>
<path d="M36.7703 120.703L33.6344 118.258L34.009 117.777C34.2678 117.776 34.5335 117.8 34.8063 117.85C35.0725 117.908 35.3096 117.978 35.5176 118.059L41.7287 110.093L42.8035 110.931L42.2391 120.86L41.9857 122.228L42.0237 122.257L42.6986 121.157L46.8098 115.884C46.674 115.711 46.5444 115.494 46.421 115.235C46.2826 114.978 46.1811 114.743 46.1167 114.531L46.4913 114.05L49.6146 116.485L49.2399 116.966C49.0093 116.949 48.7726 116.913 48.5299 116.859C48.2721 116.808 48.0233 116.736 47.7834 116.643L42.4004 123.547C42.5164 123.746 42.6259 123.954 42.7288 124.169C42.8316 124.385 42.9144 124.592 42.9769 124.79L42.6122 125.258L39.8809 123.128L40.3532 115.038L40.6194 113.497L40.5688 113.458L39.7841 114.595L36.4912 118.818C36.641 119.043 36.7766 119.278 36.8982 119.522C37.0048 119.767 37.087 120.001 37.1449 120.222L36.7703 120.703Z" fill="white"/>
<path d="M29.8702 100.757L29.5042 100.211C29.6225 100.08 29.7749 99.9332 29.9612 99.7697C30.1328 99.6033 30.3281 99.4338 30.547 99.2613C30.7512 99.0859 30.9613 98.9194 31.1773 98.7618C31.3934 98.6041 31.5902 98.4658 31.7678 98.3468C32.1714 98.5267 32.5709 98.8252 32.9662 99.2423C33.3555 99.6505 33.7138 100.099 34.0411 100.587C34.535 101.324 34.8955 102.054 35.1225 102.777C35.3347 103.497 35.3882 104.201 35.2831 104.889C35.1632 105.574 34.8787 106.234 34.4295 106.87C33.9715 107.511 33.3163 108.118 32.4638 108.689C31.6202 109.254 30.8132 109.615 30.0427 109.771C29.2575 109.924 28.5266 109.918 27.8503 109.754C27.174 109.589 26.5596 109.287 26.0071 108.847C25.4398 108.403 24.9478 107.871 24.5313 107.249C24.1386 106.663 23.8289 106.105 23.6024 105.575C23.361 105.042 23.2101 104.577 23.1499 104.18C23.292 104.084 23.48 103.971 23.7139 103.84C23.9418 103.7 24.192 103.565 24.4645 103.434C24.7221 103.3 24.9856 103.175 25.2552 103.058C25.5098 102.939 25.729 102.844 25.9126 102.772L26.2875 103.332L24.7671 105.412C24.7763 105.522 24.827 105.674 24.9194 105.87C25.0118 106.065 25.1204 106.256 25.2454 106.443C25.4894 106.807 25.7939 107.098 26.1591 107.316C26.5154 107.541 26.9367 107.67 27.423 107.705C27.9093 107.739 28.4531 107.658 29.0545 107.461C29.647 107.27 30.294 106.939 30.9955 106.469C32.2653 105.618 33.0725 104.71 33.4171 103.746C33.7617 102.782 33.6424 101.864 33.0593 100.994C32.8927 100.746 32.7351 100.549 32.5865 100.404C32.4231 100.256 32.285 100.175 32.1723 100.16L29.8702 100.757Z" fill="white"/>
<path d="M16.6073 88.5649C17.0733 88.4438 17.5594 88.3333 18.0655 88.2334C18.5716 88.1335 19.0517 88.0583 19.506 88.0079L19.6994 88.6362L18.1082 89.8979L18.9906 92.7635L22.745 91.6075L22.1693 89.7379L20.7818 89.427L20.6308 88.9366C21.1156 88.7314 21.6645 88.5344 22.2775 88.3457C22.8905 88.157 23.4704 88.0064 24.0174 87.8939L24.1684 88.3842L23.1654 89.4313L23.741 91.3008L27.7253 90.074L26.8052 87.0858L24.609 86.8729L24.4155 86.2446C24.597 86.144 24.8041 86.0355 25.0367 85.9191C25.2693 85.8028 25.5153 85.6935 25.7746 85.5913C26.0206 85.482 26.2748 85.3813 26.5373 85.2893C26.7966 85.1871 27.0386 85.1014 27.2634 85.0322L29.816 93.3225L29.2337 93.5018C29.0883 93.3564 28.9417 93.1891 28.7939 92.9997C28.6461 92.8103 28.5156 92.6045 28.4024 92.3821L19.729 95.0526C19.751 95.2695 19.7625 95.5065 19.7633 95.7635C19.7508 96.0134 19.7202 96.2409 19.6715 96.4461L19.0892 96.6253L16.6073 88.5649Z" fill="white"/>
<path d="M63.554 71.8653L64.5462 69.2082L69.2809 69.3321L64.854 81.1808L61.8115 81.1011L65.2462 71.9096L63.554 71.8653ZM69.1403 75.1504C69.8283 73.3009 70.7496 71.8456 71.9043 70.7846C73.0725 69.7127 74.4999 69.1988 76.1864 69.243C77.5424 69.2785 78.4638 69.6682 78.9505 70.4122C79.4508 71.1453 79.5771 72.1555 79.3295 73.4428C79.2283 73.9689 79.0339 74.622 78.7464 75.402C78.0585 77.2515 77.1304 78.7122 75.9621 79.7841C74.7961 80.8448 73.3698 81.3531 71.6833 81.309C70.3273 81.2734 69.4048 80.8893 68.9159 80.1565C68.4406 79.4128 68.3267 78.3973 68.5744 77.11C68.6885 76.5167 68.8772 75.8635 69.1403 75.1504ZM75.8578 75.3263C76.1166 74.6356 76.2838 74.0943 76.3591 73.7025C76.4668 73.1429 76.4358 72.7089 76.266 72.4007C76.0963 72.0925 75.7379 71.9313 75.1909 71.9169C74.4047 71.8963 73.7721 72.1779 73.2934 72.7616C72.826 73.3456 72.3988 74.167 72.0119 75.2256C71.753 75.9163 71.5859 76.4576 71.5105 76.8494C71.4029 77.4091 71.4339 77.843 71.6037 78.1512C71.7734 78.4594 72.1318 78.6207 72.6788 78.635C73.465 78.6556 74.0918 78.3739 74.5592 77.7898C75.038 77.2061 75.4709 76.3849 75.8578 75.3263ZM88.6594 77.2141L85.7024 77.1366L84.6008 80.0947L81.7976 80.0213L82.8992 77.0632L79.9422 76.9858L80.9044 74.3953L83.8785 74.4732L84.9834 71.4983L87.7866 71.5718L86.6817 74.5466L89.6387 74.624L88.6594 77.2141Z" fill="#FF7A24"/>
</svg>
