<svg width="31" height="30" viewBox="0 0 31 30" fill="none" xmlns="http://www.w3.org/2000/svg">
<rect width="31" height="30" fill="#FF7A24"/>
<path d="M18.388 21H12.16V20.226C12.46 20.094 12.76 19.98 13.06 19.884C13.372 19.776 13.684 19.686 13.996 19.614V11.352L14.068 10.29C13.732 10.398 13.384 10.47 13.024 10.506C12.664 10.542 12.292 10.554 11.908 10.542L11.818 9.876C12.454 9.708 13.144 9.48 13.888 9.192C14.644 8.904 15.34 8.568 15.976 8.184H16.588V19.614C16.888 19.686 17.188 19.776 17.488 19.884C17.788 19.98 18.088 20.094 18.388 20.226V21Z" fill="white"/>
</svg>
