<svg width="31" height="30" viewBox="0 0 31 30" fill="none" xmlns="http://www.w3.org/2000/svg">
<rect width="31" height="30" fill="#FF7A24"/>
<path d="M13.538 12.396H12.926C12.854 12.216 12.77 12.006 12.674 11.766C12.59 11.526 12.5 11.274 12.404 11.01C12.308 10.746 12.218 10.488 12.134 10.236C12.05 9.972 11.984 9.732 11.936 9.516C12.356 9.156 12.89 8.844 13.538 8.58C14.198 8.316 14.996 8.184 15.932 8.184C16.592 8.184 17.162 8.268 17.642 8.436C18.122 8.604 18.518 8.838 18.83 9.138C19.154 9.438 19.388 9.786 19.532 10.182C19.688 10.578 19.766 11.004 19.766 11.46C19.766 12.192 19.598 12.888 19.262 13.548C18.926 14.196 18.512 14.808 18.02 15.384C17.528 15.948 17 16.476 16.436 16.968C15.872 17.448 15.362 17.886 14.906 18.282L13.97 18.912V18.984L15.068 18.876H18.164L19.046 16.86H19.658C19.694 17.148 19.73 17.484 19.766 17.868C19.814 18.252 19.856 18.642 19.892 19.038C19.928 19.422 19.958 19.794 19.982 20.154C20.006 20.502 20.018 20.784 20.018 21H11.774V19.848C12.086 19.572 12.44 19.254 12.836 18.894C13.232 18.522 13.634 18.12 14.042 17.688C14.45 17.244 14.852 16.776 15.248 16.284C15.644 15.792 15.998 15.294 16.31 14.79C16.622 14.274 16.868 13.752 17.048 13.224C17.24 12.696 17.336 12.18 17.336 11.676C17.336 11.016 17.156 10.482 16.796 10.074C16.448 9.654 15.95 9.444 15.302 9.444C15.098 9.444 14.912 9.456 14.744 9.48C14.588 9.504 14.408 9.546 14.204 9.606L13.538 12.396Z" fill="white"/>
</svg>
