<svg width="31" height="30" viewBox="0 0 31 30" fill="none" xmlns="http://www.w3.org/2000/svg">
<rect width="31" height="30" fill="#FF7A24"/>
<path d="M14.626 21.046C14.902 21.046 15.172 20.986 15.436 20.866C15.7 20.734 15.934 20.554 16.138 20.326C16.354 20.098 16.522 19.828 16.642 19.516C16.774 19.204 16.84 18.868 16.84 18.508C16.84 18.1 16.768 17.752 16.624 17.464C16.492 17.164 16.312 16.918 16.084 16.726C15.868 16.534 15.616 16.396 15.328 16.312C15.04 16.216 14.752 16.168 14.464 16.168H13.42V15.448L16.12 11.92L16.732 11.29V11.218L15.76 11.326H13.042L12.34 13.162H11.728C11.668 12.91 11.602 12.61 11.53 12.262C11.47 11.914 11.41 11.566 11.35 11.218C11.302 10.87 11.26 10.534 11.224 10.21C11.2 9.886 11.188 9.616 11.188 9.4H19.036V10.282L15.922 14.08L15.148 14.872V14.908L15.76 14.782C16.324 14.806 16.828 14.914 17.272 15.106C17.728 15.286 18.106 15.538 18.406 15.862C18.718 16.174 18.952 16.54 19.108 16.96C19.276 17.38 19.36 17.842 19.36 18.346C19.36 18.946 19.228 19.486 18.964 19.966C18.712 20.446 18.37 20.854 17.938 21.19C17.506 21.526 17.002 21.784 16.426 21.964C15.85 22.132 15.244 22.216 14.608 22.216C14.248 22.216 13.888 22.186 13.528 22.126C13.168 22.078 12.826 22.006 12.502 21.91C12.19 21.814 11.902 21.7 11.638 21.568C11.386 21.436 11.17 21.292 10.99 21.136L11.656 19.264H12.178C12.25 19.348 12.346 19.462 12.466 19.606C12.598 19.738 12.73 19.882 12.862 20.038C13.006 20.194 13.144 20.35 13.276 20.506C13.408 20.662 13.522 20.794 13.618 20.902C13.738 20.926 13.87 20.956 14.014 20.992C14.17 21.028 14.374 21.046 14.626 21.046Z" fill="white"/>
</svg>
