<svg width="245" height="218" viewBox="0 0 245 218" fill="none" xmlns="http://www.w3.org/2000/svg">
<path d="M0.840712 142.504C11.7872 126.038 64.7015 138.314 83.2319 172.693C106.395 215.667 92.0662 227.542 63.7313 206.488C32.3818 183.195 19.7961 133.198 28.3177 117.461C35.1346 104.871 55.2383 99.3326 77.5543 113.782C105.449 131.844 142.132 167.074 134.419 178.681C126.707 190.288 94.7365 182.807 73.6336 147.11C52.5307 111.414 60.2793 85.3479 70.782 78.7569C78.4403 73.9509 105.907 69.63 139.171 101.109C172.435 132.587 171.395 144.98 166.892 149.084C163.866 151.842 142.35 162.296 115.222 127.514C88.093 92.7325 85.7694 65.0967 97.01 54.8515C103.736 48.7214 138.598 35.2558 175.171 72.8736C204.43 102.968 205.932 117.012 196.867 121.764C192.875 123.856 166.869 123.47 144.167 96.5552C115.789 62.9117 118.859 24.9405 139.474 16.1476C150.46 11.4619 191.099 12.5808 225.065 54.8638C259.03 97.1468 240.791 122.298 212.511 93.7715C209.878 91.1163 170.055 52.6345 160.423 29.0968C152.16 8.90689 154.504 0.169276 160.487 1.57257" stroke="#FF7A24" stroke-width="1.38053"/>
</svg>
