<svg width="34" height="34" viewBox="0 0 34 34" fill="none" xmlns="http://www.w3.org/2000/svg">
<circle cx="16.5119" cy="16.5119" r="16.5119" fill="#FF7500"/>
<g clip-path="url(#clip0_402_240)">
<path d="M16.5101 6.93164C11.2279 6.93164 6.92969 11.2286 6.92969 16.5115C6.92969 21.7943 11.2279 26.0913 16.5101 26.0913C21.7924 26.0913 26.0906 21.7943 26.0906 16.5115C26.0906 11.2286 21.7924 6.93164 16.5101 6.93164ZM16.5101 25.4532C11.5798 25.4532 7.56898 21.4418 7.56898 16.5115C7.56898 11.5812 11.5798 7.56974 16.5101 7.56974C21.4404 7.56974 25.4513 11.5812 25.4513 16.5115C25.4513 21.4418 21.4404 25.4532 16.5101 25.4532Z" fill="white"/>
<path d="M21.7632 13.5524C21.8295 13.4297 21.8841 13.3011 21.9263 13.1682C21.9459 13.1066 21.9463 13.0405 21.9275 12.9786C21.9087 12.9167 21.8715 12.862 21.821 12.8217C21.7704 12.7814 21.7088 12.7573 21.6443 12.7528C21.5798 12.7482 21.5155 12.7632 21.4597 12.796C21.1536 12.9779 20.8222 13.1134 20.4763 13.1981C20.0564 12.8192 19.5111 12.6091 18.9456 12.6084C18.6383 12.6086 18.3342 12.6709 18.0516 12.7915C17.769 12.9121 17.5136 13.0885 17.3009 13.3102C17.0881 13.5318 16.9222 13.7942 16.8133 14.0815C16.7043 14.3688 16.6545 14.6751 16.6668 14.9821C15.3231 14.813 14.0961 14.1331 13.2403 13.0834C13.2075 13.0436 13.1656 13.0124 13.1182 12.9922C13.0707 12.9721 13.0191 12.9638 12.9677 12.9679C12.9164 12.972 12.8667 12.9884 12.8231 13.0158C12.7794 13.0432 12.743 13.0807 12.7169 13.1252C12.521 13.4615 12.4145 13.8425 12.4076 14.2317C12.4007 14.6209 12.4936 15.0053 12.6775 15.3484C12.6324 15.356 12.5891 15.3718 12.5496 15.395C12.5013 15.4258 12.4616 15.4683 12.434 15.5185C12.4064 15.5687 12.392 15.6251 12.3919 15.6824C12.3919 16.3605 12.6936 16.9831 13.18 17.4061L13.1591 17.427C13.1223 17.4685 13.0971 17.5189 13.0858 17.5732C13.0745 17.6275 13.0775 17.6837 13.0945 17.7365C13.196 18.0529 13.3653 18.3432 13.5907 18.5873C13.8161 18.8314 14.0921 19.0233 14.3994 19.1495C13.7682 19.4574 13.0619 19.5775 12.3644 19.4954C12.2927 19.4881 12.2206 19.5048 12.1594 19.5429C12.0983 19.5809 12.0514 19.6382 12.0263 19.7057C12.0021 19.7738 12.0017 19.848 12.025 19.9163C12.0483 19.9846 12.094 20.0431 12.1547 20.0822C13.1029 20.6907 14.206 21.014 15.3327 21.0136C19.025 21.0136 21.2321 18.0143 21.2321 15.1148L21.2315 15.0168C21.5893 14.7374 21.9002 14.4026 22.1522 14.025C22.1904 13.9679 22.2091 13.9001 22.2057 13.8315C22.2023 13.7629 22.1769 13.6972 22.1333 13.6442C22.0896 13.5912 22.0301 13.5536 21.9634 13.5371C21.8968 13.5206 21.8266 13.5259 21.7632 13.5524ZM20.7206 14.601C20.6773 14.6321 20.6424 14.6737 20.6193 14.7218C20.5961 14.7699 20.5854 14.8231 20.588 14.8764C20.5916 14.9553 20.5934 15.0353 20.5934 15.1142C20.5934 17.7 18.6259 20.3749 15.3333 20.3749C14.746 20.3752 14.1629 20.2766 13.6084 20.0833C14.2725 19.9561 14.8964 19.6713 15.4277 19.2529C15.4794 19.2121 15.5172 19.1563 15.5361 19.0932C15.5549 19.0301 15.5538 18.9627 15.5328 18.9003C15.5119 18.8379 15.4722 18.7834 15.4192 18.7444C15.3661 18.7054 15.3023 18.6837 15.2365 18.6823C14.9789 18.6774 14.726 18.612 14.4983 18.4914C14.2706 18.3708 14.0744 18.1984 13.9256 17.988C14.0768 17.9779 14.225 17.9528 14.3689 17.9139C14.4386 17.8953 14.4999 17.8536 14.5429 17.7956C14.5858 17.7376 14.6078 17.6668 14.6053 17.5947C14.6028 17.5226 14.576 17.4535 14.5291 17.3986C14.4823 17.3437 14.4182 17.3064 14.3474 17.2926C14.0565 17.2334 13.7871 17.0962 13.5681 16.8957C13.3491 16.6952 13.1887 16.439 13.1041 16.1544C13.263 16.1944 13.4261 16.2177 13.5892 16.2231C13.7297 16.2225 13.8599 16.1365 13.9035 16.0014C13.9471 15.8664 13.8957 15.7176 13.7769 15.6388C13.4957 15.4515 13.2793 15.1819 13.157 14.867C13.0348 14.5521 13.0128 14.2071 13.0939 13.8792C14.1318 14.9441 15.5331 15.5782 17.0181 15.6549C17.1233 15.6555 17.2153 15.6179 17.2792 15.5408C17.3431 15.4637 17.3676 15.3615 17.3449 15.2636C17.2632 14.9116 17.2998 14.5426 17.4489 14.2136C17.5981 13.8845 17.8515 13.6138 18.1701 13.4433C18.4886 13.2728 18.8544 13.2121 19.2109 13.2705C19.5675 13.3289 19.8948 13.5031 20.1423 13.7663C20.1794 13.8059 20.2259 13.8354 20.2776 13.852C20.3292 13.8686 20.3842 13.8718 20.4374 13.8613C20.536 13.8416 20.6334 13.8189 20.7296 13.7926C20.6862 13.825 20.6412 13.8552 20.5946 13.8828C20.5326 13.9208 20.4854 13.9787 20.4608 14.047C20.4362 14.1154 20.4356 14.1901 20.4591 14.2588C20.4826 14.3276 20.5289 14.3863 20.5902 14.4252C20.6515 14.4642 20.7243 14.4811 20.7965 14.4731L20.9053 14.4594C20.8454 14.5087 20.7838 14.5559 20.7206 14.601Z" fill="white"/>
</g>
<defs>
<clipPath id="clip0_402_240">
<rect width="19.119" height="19.119" fill="white" transform="translate(6.95312 6.95264)"/>
</clipPath>
</defs>
</svg>
