<svg width="34" height="34" viewBox="0 0 34 34" fill="none" xmlns="http://www.w3.org/2000/svg">
<circle cx="17.0002" cy="16.5119" r="16.5119" fill="#FF7500"/>
<g clip-path="url(#clip0_402_246)">
<path d="M19.103 14.0938C18.698 14.0938 18.398 14.1959 18.1632 14.325C18.1256 14.1911 18.0019 14.0932 17.8561 14.1224H16.0733C15.897 14.0932 15.7542 14.2359 15.8086 14.4212V20.9933C15.7542 21.1606 15.897 21.304 16.0733 21.2921H17.8561C18.0324 21.304 18.1752 21.1606 18.1752 20.9844L18.1746 17.0124C18.174 17.0106 18.1674 16.8206 18.2875 16.6898C18.3837 16.5858 18.5492 16.5326 18.778 16.5326C19.1592 16.5326 19.3289 16.6886 19.3922 17.0375V20.9844C19.3295 21.1606 19.4723 21.304 19.6485 21.2921H21.5276C21.7038 21.304 21.8466 21.1606 21.7833 20.9844V16.9048C21.846 14.8304 20.3685 14.0938 19.103 14.0938ZM21.2079 20.6946H19.9676V17.0375C19.9676 16.3319 19.5117 15.8945 18.7786 15.8945C18.364 15.8945 18.0413 16.0164 17.8191 16.2566C17.5102 16.5912 17.5341 17.0154 17.6004 17.1098V20.6946H16.3923V14.7318H17.5371V14.9326C17.5366 14.9924 17.553 15.0511 17.5844 15.102C17.6158 15.1529 17.661 15.1939 17.7146 15.2203C17.7683 15.2467 17.8283 15.2574 17.8878 15.2512C17.9473 15.245 18.0038 15.2222 18.0509 15.1853L18.1345 15.1208C18.3765 14.9302 18.6269 14.7324 19.1036 14.7324C19.5972 14.7324 21.2085 14.8896 21.2085 16.9054V20.6946H21.2079Z" fill="white"/>
<path d="M14.016 11.1147C13.3457 11.1147 12.8008 11.6596 12.8008 12.33C12.8008 13.0004 13.3457 13.5453 14.016 13.5453C14.6864 13.5453 15.2313 13.0004 15.2313 12.33C15.2313 11.6596 14.6864 11.1147 14.016 11.1147ZM14.016 12.9072C13.6982 12.9072 13.4389 12.6479 13.4389 12.33C13.4389 12.0121 13.6982 11.7528 14.016 11.7528C14.3339 11.7528 14.5932 12.0121 14.5932 12.33C14.5932 12.6479 14.3339 12.9072 14.016 12.9072Z" fill="white"/>
<path d="M14.8687 14.0933H13.0955C12.9192 14.0933 12.7764 14.2361 12.8206 14.4213V20.9934C12.7764 21.1607 12.9192 21.3041 13.0955 21.2922H14.8687C15.045 21.3041 15.1878 21.1607 15.1878 20.9845V14.4123C15.1878 14.3277 15.1542 14.2465 15.0943 14.1867C15.0345 14.1269 14.9534 14.0933 14.8687 14.0933ZM14.613 20.6947H13.4145V14.732H14.613V20.6947Z" fill="white"/>
<path d="M17.0017 6.93164C11.7189 6.93164 7.42188 11.2286 7.42188 16.5115C7.42188 21.7943 11.7189 26.0913 17.0017 26.0913C22.2845 26.0913 26.5816 21.7943 26.5816 16.5115C26.5816 11.2286 22.2845 6.93164 17.0017 6.93164ZM17.0017 25.4532C12.0714 25.4532 8.05997 21.4418 8.05997 16.5115C8.05997 11.5812 12.0714 7.56974 17.0017 7.56974C21.932 7.56974 25.9435 11.5812 25.9435 16.5115C25.9435 21.4418 21.932 25.4532 17.0017 25.4532Z" fill="white"/>
</g>
<defs>
<clipPath id="clip0_402_246">
<rect width="19.119" height="19.119" fill="white" transform="translate(7.44141 6.95264)"/>
</clipPath>
</defs>
</svg>
