<svg width="34" height="34" viewBox="0 0 34 34" fill="none" xmlns="http://www.w3.org/2000/svg">
<circle cx="17.4885" cy="16.5119" r="16.5119" fill="#FF7500"/>
<g clip-path="url(#clip0_402_234)">
<path d="M17.4867 6.93164C12.2045 6.93164 7.90625 11.2286 7.90625 16.5115C7.90625 21.7943 12.2045 26.0913 17.4867 26.0913C22.7689 26.0913 27.0671 21.7943 27.0671 16.5115C27.0671 11.2286 22.7689 6.93164 17.4867 6.93164ZM17.4867 25.4532C12.5564 25.4532 8.54554 21.4418 8.54554 16.5115C8.54554 11.5812 12.5564 7.56974 17.4867 7.56974C22.417 7.56974 26.4278 11.5812 26.4278 16.5115C26.4278 21.4418 22.417 25.4532 17.4867 25.4532Z" fill="white"/>
<path d="M19.5769 11.1352H17.9829C15.9527 11.1149 15.6934 12.3713 15.6934 13.7312V14.72H14.7972C14.7567 14.7146 14.7155 14.7186 14.6767 14.7317C14.638 14.7448 14.6029 14.7666 14.574 14.7955C14.5451 14.8244 14.5232 14.8596 14.5101 14.8983C14.497 14.937 14.493 14.9782 14.4984 15.0187V16.8111C14.493 16.8516 14.497 16.8929 14.5101 16.9316C14.5232 16.9703 14.5451 17.0054 14.574 17.0343C14.6029 17.0632 14.638 17.0851 14.6767 17.0982C14.7155 17.1113 14.7567 17.1153 14.7972 17.1099H15.6934V21.5909C15.6884 21.6315 15.6928 21.6727 15.7061 21.7113C15.7195 21.7499 15.7415 21.785 15.7705 21.8138C15.7995 21.8426 15.8347 21.8645 15.8734 21.8776C15.9121 21.8907 15.9534 21.8949 15.9939 21.8896H17.8192C17.9954 21.9099 18.1382 21.7672 18.0821 21.5909L18.0833 17.1099H19.5769C19.6174 17.1153 19.6586 17.1113 19.6974 17.0982C19.7361 17.0851 19.7712 17.0632 19.8001 17.0343C19.829 17.0054 19.8509 16.9703 19.864 16.9316C19.8771 16.8929 19.8811 16.8516 19.8757 16.8111V15.0187C19.8811 14.9782 19.8771 14.937 19.864 14.8983C19.8509 14.8596 19.829 14.8244 19.8001 14.7955C19.7712 14.7666 19.7361 14.7448 19.6974 14.7317C19.6586 14.7186 19.6174 14.7146 19.5769 14.72H18.0815L18.0833 13.8238C18.1412 13.442 18.1412 13.5041 18.4955 13.5251H19.5644C19.6474 13.5065 19.7359 13.5167 19.798 13.4563C19.8601 13.396 19.896 13.3135 19.8751 13.2263V11.4339C19.8806 11.3934 19.8767 11.3522 19.8637 11.3135C19.8506 11.2748 19.8288 11.2396 19.8 11.2107C19.7711 11.1818 19.736 11.1599 19.6973 11.1468C19.6586 11.1337 19.6174 11.1297 19.5769 11.1352ZM19.2573 12.8941L18.5081 12.8654C17.5802 12.8654 17.5025 13.3691 17.5025 13.8847L17.5001 15.0175C17.5 15.0595 17.5082 15.101 17.5242 15.1398C17.5402 15.1786 17.5637 15.2138 17.5934 15.2435C17.623 15.2732 17.6582 15.2968 17.6969 15.3128C17.7357 15.3289 17.7772 15.3372 17.8192 15.3372H19.2782V16.4915H17.8204C17.7357 16.4915 17.6545 16.5251 17.5946 16.5849C17.5346 16.6447 17.5009 16.7259 17.5007 16.8105L17.5001 21.2922H16.2908V16.8111C16.2908 16.6349 16.1708 16.4921 15.9939 16.4921H15.0959V15.3378H15.9939C16.0358 15.3378 16.0773 15.3296 16.1161 15.3136C16.1549 15.2977 16.1901 15.2742 16.2197 15.2446C16.2795 15.1842 16.2902 15.103 16.2902 15.0181V13.7306C16.2902 12.3911 16.5609 11.753 17.9823 11.753H19.2567V12.8941H19.2573Z" fill="white"/>
</g>
<defs>
<clipPath id="clip0_402_234">
<rect width="19.119" height="19.119" fill="white" transform="translate(7.92969 6.95264)"/>
</clipPath>
</defs>
</svg>
