<svg width="82" height="18" viewBox="0 0 82 18" fill="none" xmlns="http://www.w3.org/2000/svg">
<path d="M0.48 17V16.088C0.784 15.912 1.104 15.76 1.44 15.632C1.792 15.504 2.128 15.424 2.448 15.392V1.808C2.128 1.744 1.792 1.656 1.44 1.544C1.088 1.416 0.768 1.272 0.48 1.112V0.199999H4.344C4.952 0.199999 5.528 0.175999 6.072 0.128C6.616 0.0799994 7.24 0.0559993 7.944 0.0559993C8.712 0.0559993 9.456 0.111999 10.176 0.223999C10.896 0.335999 11.536 0.535999 12.096 0.823999C12.656 1.112 13.104 1.52 13.44 2.048C13.776 2.56 13.944 3.224 13.944 4.04C13.944 4.552 13.848 5.032 13.656 5.48C13.48 5.912 13.224 6.296 12.888 6.632C12.568 6.968 12.184 7.248 11.736 7.472C11.304 7.696 10.832 7.856 10.32 7.952V8.048C10.832 8.112 11.344 8.232 11.856 8.408C12.384 8.584 12.856 8.84 13.272 9.176C13.688 9.512 14.024 9.936 14.28 10.448C14.552 10.944 14.688 11.536 14.688 12.224C14.688 13.088 14.496 13.832 14.112 14.456C13.728 15.08 13.208 15.592 12.552 15.992C11.912 16.392 11.176 16.688 10.344 16.88C9.512 17.056 8.648 17.144 7.752 17.144C7.416 17.144 7.048 17.136 6.648 17.12C6.248 17.104 5.848 17.088 5.448 17.072C5.048 17.056 4.656 17.04 4.272 17.024C3.904 17.008 3.592 17 3.336 17H0.48ZM7.728 15.584C8.736 15.584 9.528 15.288 10.104 14.696C10.68 14.088 10.968 13.288 10.968 12.296C10.968 11.688 10.872 11.192 10.68 10.808C10.488 10.408 10.224 10.096 9.888 9.872C9.552 9.632 9.152 9.472 8.688 9.392C8.224 9.296 7.72 9.248 7.176 9.248H5.904V15.416C6.128 15.464 6.36 15.504 6.6 15.536C6.856 15.568 7.232 15.584 7.728 15.584ZM6.672 7.688C6.944 7.688 7.216 7.68 7.488 7.664C7.76 7.632 8.016 7.6 8.256 7.568C8.88 7.312 9.384 6.92 9.768 6.392C10.152 5.848 10.344 5.232 10.344 4.544C10.344 3.536 10.08 2.8 9.552 2.336C9.024 1.856 8.344 1.616 7.512 1.616C7.16 1.616 6.856 1.624 6.6 1.64C6.344 1.656 6.112 1.68 5.904 1.712V7.688H6.672ZM22.5459 7.76C22.3539 7.856 22.1299 8.016 21.8739 8.24C21.6179 8.464 21.3859 8.832 21.1779 9.344V15.488C21.4979 15.52 21.8179 15.584 22.1379 15.68C22.4579 15.76 22.7779 15.888 23.0979 16.064V17H16.1379V16.064C16.4259 15.904 16.6979 15.784 16.9539 15.704C17.2099 15.624 17.4659 15.552 17.7219 15.488V6.704L16.1379 6.512V5.576C16.3939 5.464 16.7059 5.36 17.0739 5.264C17.4579 5.168 17.8499 5.088 18.2499 5.024C18.6499 4.944 19.0339 4.88 19.4019 4.832C19.7859 4.784 20.1059 4.744 20.3619 4.712H21.1779V7.904H21.2739C21.4019 7.552 21.5859 7.184 21.8259 6.8C22.0819 6.416 22.3779 6.064 22.7139 5.744C23.0499 5.424 23.4179 5.168 23.8179 4.976C24.2179 4.784 24.6339 4.696 25.0659 4.712C25.2419 4.936 25.3939 5.256 25.5219 5.672C25.6499 6.072 25.7539 6.456 25.8339 6.824V7.76H22.5459ZM37.2019 13.52C37.2019 13.872 37.2019 14.176 37.2019 14.432C37.2179 14.688 37.2419 14.96 37.2739 15.248L38.9299 15.488V16.328C38.7379 16.424 38.4739 16.52 38.1379 16.616C37.8179 16.712 37.4739 16.808 37.1059 16.904C36.7539 16.984 36.4019 17.048 36.0499 17.096C35.6979 17.16 35.3859 17.208 35.1139 17.24H34.2979C34.1379 16.872 34.0419 16.504 34.0099 16.136C33.9779 15.768 33.9539 15.32 33.9379 14.792H33.8179C33.7379 15.112 33.6019 15.424 33.4099 15.728C33.2179 16.016 32.9699 16.28 32.6659 16.52C32.3779 16.744 32.0339 16.928 31.6339 17.072C31.2339 17.216 30.7859 17.288 30.2899 17.288C29.7619 17.288 29.2739 17.208 28.8259 17.048C28.3779 16.888 27.9859 16.664 27.6499 16.376C27.3139 16.088 27.0499 15.744 26.8579 15.344C26.6659 14.928 26.5699 14.464 26.5699 13.952C26.5699 13.232 26.7059 12.64 26.9779 12.176C27.2499 11.712 27.6739 11.336 28.2499 11.048C28.8419 10.744 29.5939 10.52 30.5059 10.376C31.4339 10.232 32.5539 10.128 33.8659 10.064C33.9939 8.688 33.9379 7.68 33.6979 7.04C33.4579 6.4 32.9379 6.08 32.1379 6.08C31.6419 6.08 31.1859 6.16 30.7699 6.32L29.6419 9.2H28.5859C28.4579 9.008 28.3299 8.792 28.2019 8.552C28.0899 8.296 27.9779 8.032 27.8659 7.76C27.7699 7.472 27.6819 7.184 27.6019 6.896C27.5379 6.608 27.4899 6.328 27.4579 6.056C28.0659 5.64 28.8499 5.312 29.8099 5.072C30.7699 4.832 31.7859 4.712 32.8579 4.712C33.7699 4.712 34.5139 4.816 35.0899 5.024C35.6659 5.216 36.1139 5.488 36.4339 5.84C36.7699 6.176 37.0019 6.576 37.1299 7.04C37.2579 7.504 37.3219 8 37.3219 8.528C37.3219 9.488 37.2979 10.36 37.2499 11.144C37.2179 11.912 37.2019 12.704 37.2019 13.52ZM31.8019 15.368C32.1379 15.368 32.4259 15.304 32.6659 15.176C32.9059 15.048 33.1059 14.896 33.2659 14.72C33.4419 14.544 33.5699 14.352 33.6499 14.144C33.7459 13.936 33.8179 13.752 33.8659 13.592V11.192C33.1139 11.208 32.4979 11.256 32.0179 11.336C31.5379 11.416 31.1619 11.552 30.8899 11.744C30.6179 11.92 30.4259 12.152 30.3139 12.44C30.2179 12.712 30.1699 13.048 30.1699 13.448C30.1699 14.056 30.3139 14.528 30.6019 14.864C30.8899 15.2 31.2899 15.368 31.8019 15.368Z" fill="#FF7500"/>
<path d="M52.8173 1.808C52.4333 1.728 52.0653 1.624 51.7133 1.496C51.3773 1.368 51.0733 1.24 50.8013 1.112V0.199999H56.8973V1.112C56.7053 1.24 56.4493 1.368 56.1293 1.496C55.8253 1.624 55.5053 1.728 55.1693 1.808L49.6493 17L47.2733 17.288L41.0813 1.808C40.7613 1.728 40.4413 1.632 40.1213 1.52C39.8013 1.392 39.5213 1.256 39.2812 1.112V0.199999H47.2733V1.112C47.0013 1.24 46.6973 1.368 46.3613 1.496C46.0253 1.624 45.6733 1.728 45.3053 1.808L48.6653 11.264L49.2173 13.52H49.2653L49.7933 11.216L52.8173 1.808ZM66.0769 13.52C66.0769 13.872 66.0769 14.176 66.0769 14.432C66.0929 14.688 66.1169 14.96 66.1489 15.248L67.8049 15.488V16.328C67.6129 16.424 67.3489 16.52 67.0129 16.616C66.6929 16.712 66.3489 16.808 65.9809 16.904C65.6289 16.984 65.2769 17.048 64.9249 17.096C64.5729 17.16 64.2609 17.208 63.9889 17.24H63.1729C63.0129 16.872 62.9169 16.504 62.8849 16.136C62.8529 15.768 62.8289 15.32 62.8129 14.792H62.6929C62.6129 15.112 62.4769 15.424 62.2849 15.728C62.0929 16.016 61.8449 16.28 61.5409 16.52C61.2529 16.744 60.9089 16.928 60.5089 17.072C60.1089 17.216 59.6609 17.288 59.1649 17.288C58.6369 17.288 58.1489 17.208 57.7009 17.048C57.2529 16.888 56.8609 16.664 56.5249 16.376C56.1889 16.088 55.9249 15.744 55.7329 15.344C55.5409 14.928 55.4449 14.464 55.4449 13.952C55.4449 13.232 55.5809 12.64 55.8529 12.176C56.1249 11.712 56.5489 11.336 57.1249 11.048C57.7169 10.744 58.4689 10.52 59.3809 10.376C60.3089 10.232 61.4289 10.128 62.7409 10.064C62.8689 8.688 62.8129 7.68 62.5729 7.04C62.3329 6.4 61.8129 6.08 61.0129 6.08C60.5169 6.08 60.0609 6.16 59.6449 6.32L58.5169 9.2H57.4609C57.3329 9.008 57.2049 8.792 57.0769 8.552C56.9649 8.296 56.8529 8.032 56.7409 7.76C56.6449 7.472 56.5569 7.184 56.4769 6.896C56.4129 6.608 56.3649 6.328 56.3329 6.056C56.9409 5.64 57.7249 5.312 58.6849 5.072C59.6449 4.832 60.6609 4.712 61.7329 4.712C62.6449 4.712 63.3889 4.816 63.9649 5.024C64.5409 5.216 64.9889 5.488 65.3089 5.84C65.6449 6.176 65.8769 6.576 66.0049 7.04C66.1329 7.504 66.1969 8 66.1969 8.528C66.1969 9.488 66.1729 10.36 66.1249 11.144C66.0929 11.912 66.0769 12.704 66.0769 13.52ZM60.6769 15.368C61.0129 15.368 61.3009 15.304 61.5409 15.176C61.7809 15.048 61.9809 14.896 62.1409 14.72C62.3169 14.544 62.4449 14.352 62.5249 14.144C62.6209 13.936 62.6929 13.752 62.7409 13.592V11.192C61.9889 11.208 61.3729 11.256 60.8929 11.336C60.4129 11.416 60.0369 11.552 59.7649 11.744C59.4929 11.92 59.3009 12.152 59.1889 12.44C59.0929 12.712 59.0449 13.048 59.0449 13.448C59.0449 14.056 59.1889 14.528 59.4769 14.864C59.7649 15.2 60.1649 15.368 60.6769 15.368ZM79.4363 13.52C79.4363 13.872 79.4363 14.176 79.4363 14.432C79.4523 14.688 79.4763 14.96 79.5083 15.248L81.1643 15.488V16.328C80.9723 16.424 80.7083 16.52 80.3723 16.616C80.0523 16.712 79.7083 16.808 79.3403 16.904C78.9883 16.984 78.6363 17.048 78.2843 17.096C77.9323 17.16 77.6203 17.208 77.3483 17.24H76.5323C76.3723 16.872 76.2763 16.504 76.2443 16.136C76.2123 15.768 76.1883 15.32 76.1723 14.792H76.0523C75.9723 15.112 75.8363 15.424 75.6443 15.728C75.4523 16.016 75.2043 16.28 74.9003 16.52C74.6123 16.744 74.2683 16.928 73.8683 17.072C73.4683 17.216 73.0203 17.288 72.5243 17.288C71.9963 17.288 71.5083 17.208 71.0603 17.048C70.6123 16.888 70.2203 16.664 69.8843 16.376C69.5483 16.088 69.2843 15.744 69.0923 15.344C68.9003 14.928 68.8043 14.464 68.8043 13.952C68.8043 13.232 68.9403 12.64 69.2123 12.176C69.4843 11.712 69.9083 11.336 70.4843 11.048C71.0763 10.744 71.8283 10.52 72.7403 10.376C73.6683 10.232 74.7883 10.128 76.1003 10.064C76.2283 8.688 76.1723 7.68 75.9323 7.04C75.6923 6.4 75.1723 6.08 74.3723 6.08C73.8763 6.08 73.4203 6.16 73.0043 6.32L71.8763 9.2H70.8203C70.6923 9.008 70.5643 8.792 70.4363 8.552C70.3243 8.296 70.2123 8.032 70.1003 7.76C70.0043 7.472 69.9163 7.184 69.8363 6.896C69.7722 6.608 69.7243 6.328 69.6923 6.056C70.3003 5.64 71.0843 5.312 72.0443 5.072C73.0043 4.832 74.0203 4.712 75.0923 4.712C76.0043 4.712 76.7483 4.816 77.3243 5.024C77.9003 5.216 78.3483 5.488 78.6683 5.84C79.0043 6.176 79.2363 6.576 79.3643 7.04C79.4923 7.504 79.5563 8 79.5563 8.528C79.5563 9.488 79.5323 10.36 79.4843 11.144C79.4523 11.912 79.4363 12.704 79.4363 13.52ZM74.0363 15.368C74.3723 15.368 74.6603 15.304 74.9003 15.176C75.1403 15.048 75.3403 14.896 75.5003 14.72C75.6763 14.544 75.8043 14.352 75.8843 14.144C75.9803 13.936 76.0523 13.752 76.1003 13.592V11.192C75.3483 11.208 74.7323 11.256 74.2523 11.336C73.7723 11.416 73.3963 11.552 73.1243 11.744C72.8523 11.92 72.6603 12.152 72.5483 12.44C72.4523 12.712 72.4043 13.048 72.4043 13.448C72.4043 14.056 72.5483 14.528 72.8363 14.864C73.1243 15.2 73.5243 15.368 74.0363 15.368Z" fill="white"/>
</svg>
