<svg width="192" height="171" viewBox="0 0 192 171" fill="none" xmlns="http://www.w3.org/2000/svg">
<path d="M0.65904 111.549C9.24006 98.6414 50.7199 108.264 65.246 135.214C83.4035 168.902 72.1713 178.21 49.9594 161.707C25.3843 143.447 15.5183 104.254 22.1984 91.9173C27.5423 82.0481 43.3017 77.7066 60.7953 89.0337C82.6623 103.193 111.418 130.809 105.372 139.908C99.3262 149.007 74.2645 143.143 57.7219 115.16C41.1792 87.1772 47.2533 66.7439 55.4865 61.5771C61.4898 57.8097 83.021 54.4225 109.097 79.0988C135.173 103.775 134.358 113.49 130.828 116.707C128.456 118.869 111.589 127.064 90.323 99.7984C69.0567 72.5327 67.2352 50.8688 76.0468 42.8376C81.3191 38.0321 108.648 27.4764 137.318 56.9652C160.254 80.5562 161.432 91.5655 154.325 95.2903C151.196 96.9307 130.809 96.628 113.013 75.5293C90.7676 49.156 93.1746 19.3902 109.335 12.4974C117.947 8.82419 149.804 9.70128 176.43 42.8472C203.056 75.9931 188.757 95.709 166.588 73.3472C164.525 71.2657 133.307 41.0996 125.756 22.6483C119.28 6.82129 121.116 -0.0281869 125.807 1.07186" stroke="#FF7A24" stroke-width="1.08221"/>
</svg>
